PathFileType	4	(X/Y/Z)	C:/Users/beibeiliu/ov580/test_trc/capture2\sequence.10_training_dense_left.trc
DataRate	CameraRate	NumFrames	NumMarkers	Units	OrigDataRate	OrigDataStartFrame	OrigNumFrames
120	120	7	19	mm	120	131	349
Frame#	Time	ThumbCMC			ThumbMCP			ThumbIP			ThumbTip			IndexMCP			IndexPIP			IndexTip			MiddleMCP			MiddlePIP			MiddleTip			RingMCP			RingPIP			RingTip			PinkyMCP			PinkyPIP			PinkyTip			BackHand1			BackHand2			BackHand3	
		X0	Y0	Z0	X1	Y1	Z1	X2	Y2	Z2	X3	Y3	Z3	X4	Y4	Z4	X5	Y5	Z5	X6	Y6	Z6	X7	Y7	Z7	X8	Y8	Z8	X9	Y9	Z9	X10	Y10	Z10	X11	Y11	Z11	X12	Y12	Z12	X13	Y13	Z13	X14	Y14	Z14	X15	Y15	Z15	X16	Y16	Z16	X17	Y17	Z17	X18	Y18	Z18	
130	1.08333	-165.757	63.8821	-53.9595	-134.72	70.3532	-73.4069	-116.36	60.236	-93.6331	-108.862	37.7795	-104.297	-172.37	48.9795	-120.352	-163.606	48.8113	-147.06	-155.947	47.0924	-170.963	-167.178	22.7715	-124.585	-161.371	19.2178	-149.082	-155.111	15.2156	-175.278	-150.805	5.68028	-114.621	-138.522	9.54392	-143.357	-122.057	11.3645	-165.944	-134.113	0.848703	-102.512	-111.895	14.3242	-112.413	-100.384	37.2076	-92.3416	-171.751	2.49051	-72.8285	-179.374	5.84037	-41.6793	-190.601	33.1832	-59.7524	
131	1.09167	-166.496	61.9962	-50.8809	-136.787	69.4396	-71.2721	-119.174	61.8207	-91.8947	-112.068	35.3996	-100.485	-171.756	47.7857	-122.705	-165.393	50.048	-143.791	-156.28	45.9824	-167.471	-167.956	21.749	-125.78	-161.97	20.0943	-150.089	-154.876	14.0559	-177.979	-150.958	6.86657	-116.813	-140.194	5.27344	-142.544	-125.876	7.44476	-163.979	-138.857	0.0609903	-101.445	-116.647	5.18257	-119.725	-92.9292	28.9535	-118.503	-170.245	1.89237	-68.8525	-181.664	5.7431	-42.2538	-189.787	31.0386	-58.7304	
132	1.1	-167.605	63.3644	-52.376	-136.818	72.7	-73.4294	-121.302	60.0894	-94.8825	-115.047	35.4599	-99.7673	-170.78	47.4533	-121.377	-163.588	49.2143	-145.643	-157.89	49.6103	-167.723	-166.751	23.6679	-126.824	-160.267	20.3404	-150.673	-155.422	16.1058	-179.556	-153.213	11.3857	-119.033	-140.924	7.17042	-143.602	-131.199	10.8308	-166.055	-139.097	-0.156175	-101.659	-120.871	1.489	-123.881	-98.2187	13.3042	-137.669	-169.253	6.32294	-71.7379	-181.321	6.72431	-38.9575	-190.256	33.3145	-64.4602	
133	1.10833	-168.269	66.8631	-52.5699	-139.363	74.3218	-71.2929	-123.52	58.7236	-92.2459	-117.406	29.1352	-99.1705	-172.294	50.542	-119.808	-162.933	51.9874	-144.142	-157.363	52.4789	-169.447	-166.262	24.5884	-124.43	-162.025	25.9452	-149.774	-155.967	17.6431	-175.614	-151.478	7.19489	-114.19	-143.482	9.79873	-140.008	-132.402	10.8026	-167.517	-136.353	-3.43713	-100.064	-122.503	-4.71142	-120.392	-109.108	0.0795148	-141.033	-172.194	5.55534	-67.569	-180.665	5.74074	-40.0562	-190.038	31.4625	-60.3731	
134	1.11667	-167.683	64.9528	-48.2857	-139.581	69.0791	-72.4939	-124.39	55.7158	-92.3324	-118.909	29.9677	-95.5679	-171.729	50.2369	-119.333	-164.718	58.3951	-146.512	-156.401	53.157	-166.597	-166.903	27.8509	-124.118	-161.137	25.0275	-146.316	-157.186	23.523	-177.477	-150.973	8.51817	-114.652	-143.579	9.86872	-140.227	-132.959	6.88893	-166.9	-134.757	-3.76497	-102.574	-123.824	-1.9723	-121.651	-114.106	-5.13793	-142.222	-167.723	6.41989	-71.1255	-180.698	6.87586	-44.4328	-190.72	33.1071	-62.5844	
135	1.125	-168.89	65.243	-45.786	-139.274	72.1091	-69.5605	-123.466	55.3773	-92.3515	-117.532	29.0481	-97.8859	-170.335	51.5416	-122.668	-162.112	54.6077	-146.102	-155.517	53.2861	-168.774	-165.682	27.996	-123.158	-160.842	28.325	-146.139	-155.105	19.5218	-177.764	-151.611	13.3969	-117.134	-141.969	7.29657	-141.063	-135.938	7.86913	-165.129	-135.199	-0.0426411	-97.1938	-122.272	-4.1597	-119.097	-116.409	-11.6507	-137.901	-169.982	7.6385	-69.0689	-176.374	3.38636	-43.1191	-189.79	33.2569	-60.8154	
136	1.13333	-166.586	61.8632	-49.9554	-138.515	69.4571	-72.0363	-123.072	58.4775	-91.1349	-118.573	27.695	-97.859	-170.243	52.8965	-122.468	-162.58	54.9499	-144.505	-155.916	54.2084	-166.431	-165.551	28.5049	-123.877	-160.378	28.775	-148.632	-156.45	25.4398	-177.676	-149.589	11.2555	-114.115	-142.571	9.39107	-135.816	-135.247	5.15601	-164.407	-132.83	-1.49575	-101.805	-121.08	-5.83344	-115.667	-116.502	-13.2614	-139.562	-169.998	9.08737	-66.7104	-177.438	3.8191	-41.7239	-188.277	31.5733	-60.8116	
